REM DIRINDEX 1\2\5,1\2\6,1\2\7,1\2\8,1\3\9,1\3\10,1\3\11,1\4\12,1\4\13,1\4\14,1\4\15,1\4\16
REM DIRNAME folder01,folder02,folder03,folder04,folder05,folder06,folder07,folder08,folder09,folder10,folder11,folder12,folder13,folder14,folder15,folder16
TITLE ""
FILE "1200_sec03_0854_0862.mp3" MP3
  TRACK 01 AUDIO
    TITLE "0:"
    INDEX 01 00:00:00
  TRACK 02 AUDIO
    TITLE "12:cjc034_07086"
    INDEX 01 00:00:23
  TRACK 03 AUDIO
    TITLE "0:"
    INDEX 01 00:01:22
  TRACK 04 AUDIO
    TITLE "13:cjc034_07087"
    INDEX 01 00:01:54
  TRACK 05 AUDIO
    TITLE "0:"
    INDEX 01 00:02:65
  TRACK 06 AUDIO
    TITLE "14:cjc034_07088"
    INDEX 01 00:03:27
  TRACK 07 AUDIO
    TITLE "0:"
    INDEX 01 00:04:27
  TRACK 08 AUDIO
    TITLE "15:cjc034_07089"
    INDEX 01 00:04:58
  TRACK 09 AUDIO
    TITLE "0:"
    INDEX 01 00:09:51
  TRACK 10 AUDIO
    TITLE "16:cjc034_07090"
    INDEX 01 00:11:09
  TRACK 11 AUDIO
    TITLE "0:"
    INDEX 01 00:15:25
  TRACK 12 AUDIO
    TITLE "12:cjc034_07091"
    INDEX 01 00:16:28
  TRACK 13 AUDIO
    TITLE "0:"
    INDEX 01 00:17:59
  TRACK 14 AUDIO
    TITLE "13:cjc034_07092"
    INDEX 01 00:18:17
  TRACK 15 AUDIO
    TITLE "0:"
    INDEX 01 00:19:07
  TRACK 16 AUDIO
    TITLE "14:cjc034_07093"
    INDEX 01 00:19:38
  TRACK 17 AUDIO
    TITLE "0:"
    INDEX 01 00:20:69
  TRACK 18 AUDIO
    TITLE "15:cjc034_07094"
    INDEX 01 00:21:29
  TRACK 19 AUDIO
    TITLE "0:"
    INDEX 01 00:25:58
  TRACK 20 AUDIO
    TITLE "12:cjc034_07095"
    INDEX 01 00:27:16
  TRACK 21 AUDIO
    TITLE "0:"
    INDEX 01 00:28:33
  TRACK 22 AUDIO
    TITLE "13:cjc034_07096"
    INDEX 01 00:28:64
  TRACK 23 AUDIO
    TITLE "0:"
    INDEX 01 00:31:12
  TRACK 24 AUDIO
    TITLE "14:cjc034_07097"
    INDEX 01 00:31:43
  TRACK 25 AUDIO
    TITLE "0:"
    INDEX 01 00:32:60
  TRACK 26 AUDIO
    TITLE "15:cjc034_07098"
    INDEX 01 00:33:17
  TRACK 27 AUDIO
    TITLE "0:"
    INDEX 01 00:36:56
  TRACK 28 AUDIO
    TITLE "12:cjc034_07099"
    INDEX 01 00:38:12
  TRACK 29 AUDIO
    TITLE "0:"
    INDEX 01 00:39:33
  TRACK 30 AUDIO
    TITLE "13:cjc034_07100"
    INDEX 01 00:40:09
  TRACK 31 AUDIO
    TITLE "0:"
    INDEX 01 00:41:55
  TRACK 32 AUDIO
    TITLE "14:cjc034_07101"
    INDEX 01 00:42:14
  TRACK 33 AUDIO
    TITLE "0:"
    INDEX 01 00:43:33
  TRACK 34 AUDIO
    TITLE "15:cjc034_07102"
    INDEX 01 00:44:09
  TRACK 35 AUDIO
    TITLE "0:"
    INDEX 01 00:48:16
  TRACK 36 AUDIO
    TITLE "12:cjc034_07103"
    INDEX 01 00:49:51
  TRACK 37 AUDIO
    TITLE "0:"
    INDEX 01 00:50:62
  TRACK 38 AUDIO
    TITLE "13:cjc034_07104"
    INDEX 01 00:51:20
  TRACK 39 AUDIO
    TITLE "0:"
    INDEX 01 00:52:20
  TRACK 40 AUDIO
    TITLE "14:cjc034_07105"
    INDEX 01 00:52:53
  TRACK 41 AUDIO
    TITLE "0:"
    INDEX 01 00:53:62
  TRACK 42 AUDIO
    TITLE "15:cjc034_07106"
    INDEX 01 00:54:21
  TRACK 43 AUDIO
    TITLE "0:"
    INDEX 01 00:57:50
  TRACK 44 AUDIO
    TITLE "12:cjc034_07107"
    INDEX 01 00:59:22
  TRACK 45 AUDIO
    TITLE "0:"
    INDEX 01 01:00:29
  TRACK 46 AUDIO
    TITLE "13:cjc034_07108"
    INDEX 01 01:00:64
  TRACK 47 AUDIO
    TITLE "0:"
    INDEX 01 01:03:35
  TRACK 48 AUDIO
    TITLE "14:cjc034_07109"
    INDEX 01 01:03:67
  TRACK 49 AUDIO
    TITLE "0:"
    INDEX 01 01:04:74
  TRACK 50 AUDIO
    TITLE "15:cjc034_07110"
    INDEX 01 01:05:32
  TRACK 51 AUDIO
    TITLE "0:"
    INDEX 01 01:08:27
  TRACK 52 AUDIO
    TITLE "12:cjc034_07111"
    INDEX 01 01:09:59
  TRACK 53 AUDIO
    TITLE "0:"
    INDEX 01 01:11:07
  TRACK 54 AUDIO
    TITLE "13:cjc034_07112"
    INDEX 01 01:11:41
  TRACK 55 AUDIO
    TITLE "0:"
    INDEX 01 01:12:62
  TRACK 56 AUDIO
    TITLE "14:cjc034_07113"
    INDEX 01 01:13:18
  TRACK 57 AUDIO
    TITLE "0:"
    INDEX 01 01:14:39
  TRACK 58 AUDIO
    TITLE "15:cjc034_07114"
    INDEX 01 01:14:74
  TRACK 59 AUDIO
    TITLE "0:"
    INDEX 01 01:19:03
  TRACK 60 AUDIO
    TITLE "12:cjc034_07115"
    INDEX 01 01:20:44
  TRACK 61 AUDIO
    TITLE "0:"
    INDEX 01 01:21:57
  TRACK 62 AUDIO
    TITLE "13:cjc034_07116"
    INDEX 01 01:22:13
  TRACK 63 AUDIO
    TITLE "0:"
    INDEX 01 01:25:47
  TRACK 64 AUDIO
    TITLE "14:cjc034_07117"
    INDEX 01 01:26:03
  TRACK 65 AUDIO
    TITLE "0:"
    INDEX 01 01:27:16
  TRACK 66 AUDIO
    TITLE "15:cjc034_07118"
    INDEX 01 01:27:50
  TRACK 67 AUDIO
    TITLE "0:"
    INDEX 01 01:31:57
  TRACK 68 AUDIO
    TITLE "12:cjc034_07119"
    INDEX 01 01:33:13
  TRACK 69 AUDIO
    TITLE "0:"
    INDEX 01 01:34:12
  TRACK 70 AUDIO
    TITLE "13:cjc034_07120"
    INDEX 01 01:34:46
  TRACK 71 AUDIO
    TITLE "0:"
    INDEX 01 01:37:46
  TRACK 72 AUDIO
    TITLE "14:cjc034_07121"
    INDEX 01 01:38:04
  TRACK 73 AUDIO
    TITLE "0:"
    INDEX 01 01:39:04
  TRACK 74 AUDIO
    TITLE "15:cjc034_07122"
    INDEX 01 01:39:37
  TRACK 75 AUDIO
    TITLE "0:"
    INDEX 01 01:42:69
